<?xml version="1.0" encoding="utf-8"?>
<!-- Svg Vector Icons : http://www.onlinewebfonts.com/icon -->
<!DOCTYPE svg PUBLIC "-//W3C//DTD SVG 1.1//EN" "http://www.w3.org/Graphics/SVG/1.1/DTD/svg11.dtd">
<svg version="1.1" xmlns="http://www.w3.org/2000/svg" xmlns:xlink="http://www.w3.org/1999/xlink" x="0px" y="0px" viewBox="0 0 1000 1000" enable-background="new 0 0 1000 1000" xml:space="preserve">
<metadata> Svg Vector Icons : http://www.onlinewebfonts.com/icon </metadata>
<g><g transform="translate(0.000000,512.000000) scale(0.100000,-0.100000)"><path d="M2721.2,3881.7v-1139h890.2h890.2V1680.2V617.7h-650.9h-650.9v248.9v248.9l101.5,45.9c208.7,93.8,358,294.8,386.7,522.6c36.4,283.3-151.2,578.1-434.6,685.3c-116.8,42.1-375.2,32.5-472.8-17.2l-65.1-34.5L2099,2934.1l-618.3,618.3l36.4,80.4c82.3,185.7,59.3,417.3-59.3,601.1c-65.1,101.5-134,162.7-268,233.6c-74.7,40.2-112.9,45.9-277.6,45.9c-220.2,0-302.5-30.6-446-170.4c-128.3-120.6-181.9-239.3-191.4-426.9c-9.6-179.9,17.2-281.4,111-417.3c63.2-91.9,222.1-208.7,312-231.6l51.7-11.5v-685.3V1885l-53.6-11.5c-151.2-38.3-335-220.1-396.3-396.3c-42.1-118.7-38.3-275.7,9.6-323.5c114.9-114.9,287.2-23,287.2,155.1c0,70.8,61.3,172.3,132.1,220.2c212.5,139.7,476.7,13.4,511.1-243.1c19.1-147.4,120.6-220.2,229.7-166.5c118.7,55.5,128.3,218.2,26.8,428.8c-67,137.8-174.2,243.1-317.8,308.2l-103.4,45.9v668.1v668.1l80.4,36.4l82.3,38.3l618.3-616.4l618.3-616.4l-42.1-91.9c-49.8-112.9-53.6-323.5-9.6-448c65.1-180,246.9-359.9,400.1-398.2l51.7-11.5V874.3V617.7h-610.7H1653l-358-492L937-368.2l2031.1-5.7c1118-1.9,2944.3-1.9,4062.3,0l2031.1,5.7l-358,493.9l-358,492H8223h-122.5v323.5v321.6l139.7,11.5c166.6,15.3,377.1,82.3,526.4,170.4c59.4,34.5,195.3,147.4,300.6,248.9l191.4,185.7l-402,403.9l-402,402l220.2,220.2l220.1,220.2l105.3-40.2c141.7-53.6,371.4-45.9,499.6,17.2c141.7,68.9,239.3,166.6,308.2,306.3c57.4,114.9,63.2,143.6,61.3,291c-1.9,189.5-40.2,294.8-155.1,423.1c-315.9,348.4-857.6,279.5-1070.1-139.8c-74.7-145.5-86.1-356.1-26.8-515l42.1-118.7l-216.3-216.3L8225,2915l-407.8,405.8l-407.8,407.8L7218,3531.4c-155.1-162.7-204.8-229.7-275.7-373.3c-193.3-390.5-193.3-784.9,1.9-1177.3c147.4-300.6,438.4-551.3,760-654.7l70.8-23V960.4V617.7h-813.6h-813.6v402v402h162.7h162.7v488.2v488.2h-488.2H5497v-488.2v-488.2h162.7h162.7v-402v-402h-497.7H4827l3.8,1058.6l5.7,1056.7l895.9,5.7l894,3.8v1139v1139H4673.8H2721.2V3881.7z M4093.8,4480.9c153.1-55.5,310.1-214.4,367.5-369.5c61.3-158.9,49.8-377.1-24.9-522.6c-68.9-134-181.9-245-315.9-306.3c-155.1-72.7-367.6-72.7-528.4,1.9c-149.3,68.9-260.4,181.9-329.3,327.4c-44,97.6-53.6,141.7-51.7,269.9c0,166.6,36.4,275.7,134,403.9C3506.1,4496.2,3827.7,4580.4,4093.8,4480.9z M5765,4465.6c132.1-67,185.7-114.9,258.4-218.2c84.2-124.4,132.1-306.3,114.9-438.4c-17.2-135.9-109.1-319.7-202.9-405.8c-132.1-118.7-269.9-170.4-448-172.3c-135.9,0-168.5,7.7-281.4,63.2c-402,197.2-490.1,710.2-180,1033.8c141.7,149.3,264.2,197.2,490.1,189.5C5640.6,4511.5,5698,4500,5765,4465.6z"/><path d="M462.2-1020.9c-128.3-174.2-227.8-329.3-222.1-342.7c3.8-13.4,90-134,187.6-269.9c222.1-302.5,214.4-291,189.5-319.7c-38.3-45.9-57.4-191.4-38.3-279.5c21.1-97.6,0-135.9-76.6-135.9c-151.2,0-304.4-99.6-367.6-239.3c-68.9-151.2-34.5-315.9,91.9-438.4c44-42.1,82.3-88,82.3-99.5c0-9.6-30.6-49.8-68.9-86.1c-260.4-247-135.9-629.8,222.1-685.4c130.2-21.1,141.7-34.5,118.7-145.5c-38.3-178,44-346.5,210.6-432.6c97.6-49.8,269.9-47.9,369.5,1.9c116.8,59.3,155.1,51.7,197.2-42.1c65.1-151.2,216.3-245,388.6-245c36.4,0,114.9,23,172.3,51.7c82.3,44,116.8,74.6,168.5,164.6c72.7,122.5,95.7,130.2,216.3,68.9c63.2-32.5,105.3-38.3,208.7-32.5c160.8,9.6,271.8,76.6,338.8,206.7c40.2,74.7,44,103.4,34.5,224c-11.5,153.1,3.8,178,116.8,178c134,1.9,314,145.5,342.7,273.8c11.5,55.5,11.5,55.5,63.2-45.9c65.1-132.1,168.5-206.8,315.9-225.9c112.9-15.3,155.1-45.9,134-97.6c-61.2-151.2,7.7-359.9,147.4-453.7c111-72.8,302.5-86.2,425-26.8c122.5,59.3,155.1,53.6,195.3-34.5c147.4-329.3,599.2-329.3,746.6,0c40.2,88.1,72.7,93.8,195.3,34.5c122.5-59.4,315.9-46,425,28.7c107.2,74.6,183.8,229.7,168.5,342.7c-5.7,46-15.3,93.8-21.1,109.1c-19.2,51.7,23,82.3,134,97.6c147.4,19.1,250.8,93.8,315.9,225.9l51.7,101.5l13.4-61.3c28.7-132.1,208.7-266.1,356.1-268c97.6,0,114.9-30.6,101.5-166.5c-21.1-191.4,55.5-338.8,212.5-409.7c105.3-47.9,275.7-47.9,373.3,1.9c116.8,59.3,139.7,51.7,212.5-70.8c174.2-294.8,578.1-281.4,725.5,23c47.9,99.6,84.2,107.2,201,47.9c157-80.4,381-34.5,501.6,101.4c72.7,82.3,91.9,166.6,76.6,321.6c-15.3,128.3-9.6,134,132.1,153.1c135.9,19.1,243.1,93.8,304.4,214.4c82.3,168.5,49.8,335-93.8,470.9c-38.3,36.3-68.9,78.5-68.9,91.9c0,13.4,26.8,42.1,57.4,67c76.6,55.5,153.2,212.5,153.2,310.1s-53.6,214.4-126.3,283.3c-61.3,57.4-195.3,111-275.7,111c-80.4,0-103.4,40.2-80.4,143.6c19.1,90,7.7,180-32.5,254.6c-26.8,51.7-38.3,28.7,185.7,336.9c97.6,135.9,183.8,256.5,187.6,269.9c5.8,13.4-93.8,168.5-222.1,342.7l-231.6,317.8H8050.8h-1252v-325.4V-1354h-488.2h-488.2v325.4v325.4h-162.7H5497l-3.8-319.7l-5.7-321.6h-488.2h-488.2l-5.7,321.6l-3.8,319.7h-162.7h-162.7v-325.4V-1354h-488.2h-488.2v325.4v325.4h-1252H693.9L462.2-1020.9z M1767.8-1855.6c15.3-13.4,51.7-65.1,80.4-114.9c105.3-187.6,333.1-248.9,545.6-149.3c143.6,67,162.7,49.8,162.7-155.1c1.9-145.5,7.7-172.3,55.5-245.1c63.2-93.8,210.6-174.2,323.5-174.2c51.7,0,76.6-11.5,91.9-38.3c17.2-32.5,9.6-49.8-57.4-114.9c-97.6-95.7-134-179.9-134-306.3c0-116.8,47.9-216.3,143.6-300.6c59.3-53.6,67-67,47.9-101.4c-13.4-23-40.2-38.3-72.7-38.3c-99.6,0-201-42.1-283.3-118.7c-103.4-95.7-130.2-174.2-116.8-344.6c9.6-114.9,7.7-132.1-24.9-149.3c-26.8-15.3-57.4-7.7-126.4,28.7c-95.7,51.7-266.1,65.1-359.9,28.7c-76.6-28.7-199.1-149.3-222.1-222.1c-15.3-42.1-38.3-68.9-67-76.6c-59.3-15.3-80.4,0-116.8,84.2c-88.1,214.4-344.6,296.7-572.4,187.6c-137.8-67-166.6-45.9-151.2,111c26.8,254.6-91.9,407.8-354.2,461.4c-153.1,30.6-162.7,65.1-57.4,170.4c178,176.1,176.1,394.4-7.7,582c-99.6,101.5-86.1,141.7,55.5,158.9c120.6,15.3,197.2,55.5,269.9,139.8c80.4,88,105.3,176.1,97.6,331.2c-5.7,120.6-3.8,130.2,36.4,135.9c23,3.8,74.7-11.5,116.8-32.5c224-112.9,455.6-36.4,568.6,189.5C1687.4-1832.6,1716.1-1815.4,1767.8-1855.6z M5039.5-1851.8c19.1-11.5,36.4-32.5,36.4-46c0-49.8,116.8-183.8,195.3-225.9c113-57.4,264.2-57.4,381,0c153.1,74.7,199.1,47.9,166.5-95.7c-53.6-231.6,143.6-474.7,386.7-474.7c53.6,0,95.7-30.6,95.7-70.8c0-13.4-36.4-61.3-82.3-105.3c-166.6-168.5-168.5-373.3,0-553.2c111-120.6,105.3-155.1-30.6-176.1c-258.4-36.4-421.1-245-369.5-470.9c34.5-147.4-7.6-174.2-157-101.5c-78.5,38.3-116.8,44-222.1,38.3c-166.6-9.6-262.3-68.9-338.9-210.6c-74.7-141.7-122.5-139.7-214.4,11.5c-49.8,82.3-91.9,126.3-153.1,158.9c-114.9,59.3-275.7,59.3-400.1,0c-141.7-70.8-191.4-40.2-155.1,93.8c42.1,145.5-42.1,337-179.9,419.3c-46,24.9-130.2,53.6-185.7,61.3c-137.8,21.1-145.5,55.5-32.5,176.1c111,118.7,141.7,218.2,109.1,363.7c-17.2,78.5-42.1,120.6-107.2,187.6c-45.9,45.9-84.2,93.8-84.2,107.2c0,44,44,70.8,112.9,70.8c225.9,0,426.9,256.5,367.6,474.7c-36.4,139.7,26.8,176.1,164.6,95.7c99.5-59.3,269.9-59.3,382.9,0c78.5,40.2,178,149.3,178,191.4c0,23,67,99.6,88.1,99.6C4997.3-1832.6,5018.4-1842.2,5039.5-1851.8z M8303.4-1847.9c11.5-7.7,40.2-47.9,61.3-91.9c59.4-114.9,155.1-191.4,279.5-220.2c107.2-23,139.7-17.2,329.3,59.3c105.3,44,126.4,19.1,112.9-130.2c-11.5-99.6-5.7-147.4,17.2-204.8c63.2-147.4,179.9-235.5,344.6-256.5c141.7-17.2,155.1-57.4,55.5-158.9c-183.8-187.6-187.6-405.8-11.5-580c112.9-111,101.5-139.7-70.8-174.2c-145.5-30.6-239.3-97.6-302.5-220.2c-40.2-72.8-44-101.5-34.5-222.1c9.6-124.4,7.6-141.7-26.8-158.9c-26.8-15.3-55.5-7.7-126.3,28.7c-216.3,114.9-480.5,28.7-570.5-185.7c-36.4-84.2-57.4-99.5-116.8-84.2c-28.7,7.7-51.7,34.5-65.1,74.6c-24.9,72.8-116.8,166.6-206.7,212.5c-95.7,47.9-269.9,40.2-377.1-17.2c-70.8-36.4-99.5-44-126.3-28.7c-32.5,17.2-36.4,34.5-26.8,132.1c19.1,166.5-1.9,241.2-91.9,338.8c-76.6,84.2-206.7,141.7-313.9,141.7c-24.9,0-53.6,17.2-65.1,38.3c-19.1,34.5-11.5,47.9,47.9,101.4c97.6,84.3,143.6,181.9,143.6,302.5c0,126.3-55.5,245-145.5,313.9c-34.5,26.8-65.1,57.4-65.1,67c0,36.4,63.2,76.6,120.6,76.6c105.3,0,252.7,84.2,314,174.2c49.8,74.7,53.6,95.7,51.7,250.8c-1.9,158.9,1.9,170.4,42.1,179.9c24.9,5.8,74.7-7.7,124.4-32.5c189.5-99.6,430.7-36.4,534.1,135.9c53.6,90,107.2,153.1,130.2,153.1C8276.6-1832.6,8292-1840.3,8303.4-1847.9z M3843-2207.8c23-126.4,3.8-160.8-95.7-160.8c-145.5,0-331.2-147.4-367.6-294.8l-13.4-53.6l-24.9,72.8c-13.4,40.2-40.2,93.8-59.3,120.6c-45.9,63.2-224,155.1-300.5,155.1c-99.6,0-111,19.1-95.7,151.3l13.4,116.8h461.4h463.3L3843-2207.8z M7112.7-2217.4c15.3-130.2,3.8-151.3-86.1-151.3c-72.8,0-170.4-36.4-243.1-90c-63.2-47.9-135.9-168.5-139.7-229.7c0-19.1-13.4,0-28.7,44c-51.7,147.4-187.6,250.8-354.2,269.9c-111,13.4-143.6,49.8-113,130.2c9.6,26.8,19.2,70.8,19.2,97.6v46h467.1h465.2L7112.7-2217.4z M3513.7-3071.2c38.3-32.5,68.9-68.9,68.9-80.4c0-9.6-30.6-42.1-67-68.9c-36.4-28.7-86.1-95.7-112.9-149.3l-45.9-95.7l-13.4,63.2c-7.7,36.4-49.8,97.6-97.6,147.4c-45.9,45.9-84.2,95.7-84.2,109.1s38.3,65.1,86.1,111c49.8,51.7,91.9,112.9,97.6,147.4l13.4,59.3l42.1-90C3423.7-2969.8,3475.4-3036.8,3513.7-3071.2z M6758.6-3046.3c44-44,78.5-90,78.5-103.4c0-11.5-38.3-59.4-84.2-105.3c-49.8-49.8-90-111-97.6-149.3l-15.3-65.1l-32.5,78.5c-19.2,44-70.8,114.9-114.9,157c-90,84.2-88.1,99.6,13.4,183.8c32.5,26.8,74.6,88,93.8,134l34.5,84.2l23-68.9C6670.5-2937.2,6716.4-3002.3,6758.6-3046.3z"/><path d="M1511.3-2531.4c-103.4-38.3-229.7-130.2-291-208.7c-97.6-130.2-134-237.4-135.9-403.9c0-135.9,7.7-168.5,63.2-281.4c72.8-147.4,176.1-248.9,327.4-317.8c153.1-72.8,367.6-70.8,522.6,0c132.1,61.3,260.3,183.8,323.5,312c40.2,82.3,45.9,122.5,45.9,287.1c0,220.2-30.6,302.5-170.4,446c-126.3,134-239.3,181.9-442.2,189.5C1637.7-2504.6,1559.2-2512.2,1511.3-2531.4z"/><path d="M4756.1-2542.9c-134-51.7-279.5-185.7-344.6-319.7c-45.9-95.7-53.6-132.1-53.6-281.4s7.7-185.7,53.6-281.4c193.3-394.4,698.7-495.8,1016.5-204.8c63.2,57.4,126.3,139.8,158.9,204.8c46,95.7,53.6,132.1,53.6,281.4c0,153.1-5.7,185.7-57.4,283.3c-68.9,139.7-208.7,266.1-346.5,317.8C5098.8-2489.3,4892.1-2491.2,4756.1-2542.9z"/><path d="M8081.4-2519.9c-164.6-53.6-321.6-187.6-403.9-346.5c-38.3-72.7-45.9-114.9-45.9-277.6c0-164.6,5.7-204.8,45.9-287.1c63.2-128.3,191.4-250.8,323.5-312c155.1-70.8,369.5-72.8,522.6,0c151.2,68.9,254.6,170.4,327.4,317.8c55.5,112.9,63.2,145.5,63.2,281.4c-1.9,187.6-57.4,327.3-185.7,453.7c-128.3,130.2-243.1,176.1-436.5,181.9C8202-2506.5,8108.2-2510.3,8081.4-2519.9z"/></g></g>
</svg>