<svg xmlns="http://www.w3.org/2000/svg" xmlns:xlink="http://www.w3.org/1999/xlink" width="141.766" height="92.213" viewBox="0 0 141.766 92.213">
  <defs>
    <radialGradient id="radial-gradient" cx="0.5" cy="0.5" r="0.413" gradientUnits="objectBoundingBox">
      <stop offset="0.386" stop-color="#3aaa35"/>
      <stop offset="0.532" stop-color="#33a635"/>
      <stop offset="0.732" stop-color="#229e35"/>
      <stop offset="0.962" stop-color="#058f35"/>
      <stop offset="1" stop-color="#008d36"/>
    </radialGradient>
    <linearGradient id="linear-gradient" x1="-0.004" y1="0.183" x2="1.004" y2="0.817" gradientUnits="objectBoundingBox">
      <stop offset="0" stop-color="#79db1a"/>
      <stop offset="0.079" stop-color="#70d41a"/>
      <stop offset="0.207" stop-color="#57c21b"/>
      <stop offset="0.369" stop-color="#2fa51c"/>
      <stop offset="0.535" stop-color="#00821e"/>
      <stop offset="1" stop-color="#79db1a"/>
    </linearGradient>
    <linearGradient id="linear-gradient-2" x1="-9.247" y1="-47.567" x2="-8.58" y2="-47.576" xlink:href="#linear-gradient"/>
    <radialGradient id="radial-gradient-2" cx="1.181" cy="0.203" r="1.599" gradientUnits="objectBoundingBox">
      <stop offset="0" stop-color="#046a38"/>
      <stop offset="0.302" stop-color="#036334"/>
      <stop offset="0.715" stop-color="#03522b"/>
      <stop offset="1" stop-color="#034223"/>
    </radialGradient>
    <linearGradient id="linear-gradient-3" x1="-60.91" y1="23.637" x2="-60.244" y2="23.628" xlink:href="#linear-gradient"/>
    <radialGradient id="radial-gradient-3" cx="-0.181" cy="0.797" r="1.599" xlink:href="#radial-gradient-2"/>
    <radialGradient id="radial-gradient-4" cx="0.5" cy="0.5" r="1.165" xlink:href="#radial-gradient"/>
    <linearGradient id="linear-gradient-4" x1="0.205" y1="-0.426" x2="0.795" y2="1.426" xlink:href="#linear-gradient"/>
    <linearGradient id="linear-gradient-5" x1="-4.579" y1="-4.752" x2="1.602" y2="1.749" xlink:href="#linear-gradient"/>
    <linearGradient id="linear-gradient-6" x1="-4.326" y1="-4.485" x2="0.766" y2="0.869" xlink:href="#linear-gradient"/>
    <linearGradient id="linear-gradient-7" x1="-5.862" y1="-6.098" x2="0.32" y2="0.401" xlink:href="#linear-gradient"/>
    <linearGradient id="linear-gradient-8" x1="0.116" y1="0.186" x2="6.297" y2="6.687" xlink:href="#linear-gradient"/>
    <linearGradient id="linear-gradient-9" x1="-0.245" y1="-0.194" x2="4.845" y2="5.159" xlink:href="#linear-gradient"/>
    <linearGradient id="linear-gradient-10" x1="-1.167" y1="-1.162" x2="5.017" y2="5.34" xlink:href="#linear-gradient"/>
  </defs>
  <g id="Group_34" data-name="Group 34" transform="translate(-180.811 -214.01)">
    <path id="Path_36" data-name="Path 36" d="M289.381,241.779a27.769,27.769,0,1,0-48.614,18.338,27.769,27.769,0,1,0,41.689,0A27.652,27.652,0,0,0,289.381,241.779Z" transform="translate(-9.918 0)" fill="#fff"/>
    <path id="Path_37" data-name="Path 37" d="M286.468,245.724a23.985,23.985,0,1,0-41.989,15.839,23.985,23.985,0,1,0,36.007,0A23.886,23.886,0,0,0,286.468,245.724Z" transform="translate(-10.788 -1.445)" fill="url(#radial-gradient)"/>
    <path id="Path_38" data-name="Path 38" d="M261.552,216.808c14.963,0,27.137,11.648,27.137,25.963a25.3,25.3,0,0,1-6.766,17.145l-.519.564.519.563a25.3,25.3,0,0,1,6.766,17.147c0,14.317-12.174,25.963-27.137,25.963s-27.137-11.647-27.137-25.963a25.3,25.3,0,0,1,6.767-17.147l.519-.563-.519-.564a25.3,25.3,0,0,1-6.767-17.145c0-14.316,12.174-25.963,27.137-25.963m0-.854c-15.481,0-28.029,12.005-28.029,26.817a26.059,26.059,0,0,0,6.989,17.709,26.056,26.056,0,0,0-6.989,17.709c0,14.811,12.548,26.816,28.029,26.816S289.581,293,289.581,278.189a26.053,26.053,0,0,0-6.99-17.709,26.056,26.056,0,0,0,6.99-17.709c0-14.812-12.549-26.817-28.029-26.817Z" transform="translate(-9.858 -0.364)" fill="url(#linear-gradient)"/>
    <g id="Group_18" data-name="Group 18" transform="translate(272.569 220.475)">
      <path id="Path_39" data-name="Path 39" d="M316.347,204.416c-8.522,29.572-26.533,19.5-28.144,16.828S286.206,198.2,316.347,204.416Z" transform="translate(-285.973 -203.242)" fill="url(#linear-gradient-2)"/>
      <path id="Path_40" data-name="Path 40" d="M299.544,222.849a.086.086,0,0,0-.1-.066h0a5.227,5.227,0,0,1-1.837-.029,15.383,15.383,0,0,1-1.817-.417c-.6-.171-1.192-.369-1.778-.581q-.3-.108-.592-.222a67.959,67.959,0,0,1,6.814-4.223.416.416,0,0,0,.152.054c.515.074,1.02.131,1.53.18s1.019.088,1.531.11,1.023.036,1.537.017a8.94,8.94,0,0,0,1.532-.162.085.085,0,0,0-.026-.168h0a8.7,8.7,0,0,1-1.5,0c-.5-.035-1-.1-1.495-.177s-.99-.167-1.483-.268c-.236-.049-.474-.1-.71-.153,3.174-1.656,5.386-2.514,5.386-2.514a38.525,38.525,0,0,0-8.716,3.111c.1-.15.2-.3.3-.448a16.432,16.432,0,0,1,1.552-1.923c.285-.3.581-.585.892-.856a11.4,11.4,0,0,1,.98-.753,9.193,9.193,0,0,1,1.073-.613,7.635,7.635,0,0,1,1.162-.428h0a.085.085,0,0,0-.04-.165,7.8,7.8,0,0,0-1.224.363,9.39,9.39,0,0,0-1.15.562,11.726,11.726,0,0,0-1.064.713q-.508.39-.98.825a16.94,16.94,0,0,0-1.732,1.884q-.4.5-.763,1.03c-.111.163-.22.325-.327.491a47.821,47.821,0,0,0-5.481,3.453q.2-.48.407-.958c.352-.808.721-1.607,1.114-2.395s.813-1.561,1.282-2.3a11.592,11.592,0,0,1,.758-1.07,4.431,4.431,0,0,1,.927-.9l0,0a.085.085,0,0,0-.091-.144,4.633,4.633,0,0,0-1.03.881,11.958,11.958,0,0,0-.842,1.048c-.524.725-.995,1.484-1.443,2.254s-.868,1.556-1.273,2.349c-.366.717-.716,1.437-1.055,2.172a43.5,43.5,0,0,0-5.9,5.416l.942,1.257a45.171,45.171,0,0,1,7.713-7.018c.374.114.748.222,1.127.323.615.164,1.234.313,1.86.435a15.827,15.827,0,0,0,1.9.266,5.451,5.451,0,0,0,1.919-.137A.086.086,0,0,0,299.544,222.849Z" transform="translate(-284.029 -208.069)" fill="url(#radial-gradient-2)"/>
    </g>
    <g id="Group_19" data-name="Group 19" transform="translate(198.168 271.826)">
      <path id="Path_41" data-name="Path 41" d="M187.464,307.013c9.035-31.353,28.131-20.671,29.839-17.842S219.42,313.608,187.464,307.013Z" transform="translate(-187.464 -285.126)" fill="url(#linear-gradient-3)"/>
      <path id="Path_42" data-name="Path 42" d="M211.882,293.5a.09.09,0,0,0,.107.07h0a5.538,5.538,0,0,1,1.947.031,16.407,16.407,0,0,1,1.927.442c.635.182,1.263.391,1.885.616q.314.114.628.235a72.048,72.048,0,0,1-7.225,4.477.438.438,0,0,0-.161-.057c-.546-.079-1.081-.138-1.622-.191s-1.081-.093-1.624-.117-1.085-.038-1.629-.018a9.481,9.481,0,0,0-1.625.171.09.09,0,0,0,.028.178h0a9.225,9.225,0,0,1,1.588,0c.529.037,1.058.107,1.584.188s1.05.177,1.572.285c.251.052.5.106.752.163-3.366,1.756-5.71,2.666-5.71,2.666a40.88,40.88,0,0,0,9.241-3.3c-.1.159-.209.318-.318.475a17.357,17.357,0,0,1-1.645,2.039c-.3.316-.617.62-.946.907a12.074,12.074,0,0,1-1.039.8,9.758,9.758,0,0,1-1.138.65,8.079,8.079,0,0,1-1.232.454h0a.09.09,0,0,0,.043.175,8.281,8.281,0,0,0,1.3-.385,9.982,9.982,0,0,0,1.219-.6,12.363,12.363,0,0,0,1.128-.756q.54-.413,1.039-.875a17.971,17.971,0,0,0,1.836-2q.422-.532.809-1.092c.118-.173.234-.345.346-.52a50.671,50.671,0,0,0,5.811-3.661q-.212.51-.431,1.016c-.373.856-.765,1.7-1.182,2.539s-.862,1.655-1.359,2.441a12.38,12.38,0,0,1-.8,1.135,4.712,4.712,0,0,1-.983.954l0,0a.09.09,0,0,0,.1.153,4.92,4.92,0,0,0,1.091-.934,12.678,12.678,0,0,0,.893-1.111c.555-.769,1.054-1.573,1.529-2.39s.921-1.65,1.351-2.49c.388-.76.76-1.524,1.117-2.3a46.112,46.112,0,0,0,6.255-5.742l-1-1.333a47.935,47.935,0,0,1-8.177,7.441c-.4-.121-.794-.235-1.2-.343-.652-.174-1.308-.332-1.971-.461a16.808,16.808,0,0,0-2.01-.282,5.792,5.792,0,0,0-2.034.145A.091.091,0,0,0,211.882,293.5Z" transform="translate(-196.128 -286.035)" fill="url(#radial-gradient-3)"/>
    </g>
    <rect id="Rectangle_5" data-name="Rectangle 5" width="141.765" height="45.171" rx="20.515" transform="translate(180.811 237.819)" fill="url(#radial-gradient-4)"/>
    <path id="Path_43" data-name="Path 43" d="M305.9,244.078a15.914,15.914,0,0,1,15.9,15.9v11.814a15.914,15.914,0,0,1-15.9,15.9H197.49a15.914,15.914,0,0,1-15.9-15.9V259.974a15.914,15.914,0,0,1,15.9-15.9H305.9m0-.782H197.49a16.679,16.679,0,0,0-16.679,16.678v11.814a16.679,16.679,0,0,0,16.679,16.678H305.9a16.68,16.68,0,0,0,16.679-16.678V259.974A16.68,16.68,0,0,0,305.9,243.3Z" transform="translate(0 -5.477)" fill="url(#linear-gradient-4)"/>
    <g id="Group_22" data-name="Group 22" transform="translate(241.073 225.314)">
      <g id="Group_20" data-name="Group 20" transform="translate(0 61.387)">
        <path id="Path_44" data-name="Path 44" d="M256.142,309.409l1.945-1.153,1.945,1.151-.5-2.2,1.7-1.5-2.251-.207-.9-2.077-.9,2.077-2.251.209,1.7,1.495Z" transform="translate(-254.936 -303.423)" fill="url(#linear-gradient-5)"/>
        <path id="Path_45" data-name="Path 45" d="M265.5,311.908l2.359-1.4,2.359,1.4-.6-2.678,2.061-1.815-2.734-.254-1.089-2.52-1.087,2.52-2.734.258,2.062,1.813Z" transform="translate(-256.637 -303.65)" fill="url(#linear-gradient-6)"/>
        <path id="Path_46" data-name="Path 46" d="M275.99,309.409l1.945-1.153,1.942,1.151-.493-2.2,1.7-1.5-2.25-.207-.9-2.077-.9,2.077-2.25.209,1.7,1.495Z" transform="translate(-258.648 -303.423)" fill="url(#linear-gradient-7)"/>
      </g>
      <g id="Group_21" data-name="Group 21" transform="translate(0)">
        <path id="Path_47" data-name="Path 47" d="M256.142,236.692l1.945-1.152,1.945,1.151-.5-2.2,1.7-1.5-2.251-.207-.9-2.076-.9,2.076-2.251.209,1.7,1.495Z" transform="translate(-254.936 -228.436)" fill="url(#linear-gradient-8)"/>
        <path id="Path_48" data-name="Path 48" d="M265.5,235.183l2.359-1.4,2.359,1.4-.6-2.677,2.061-1.816-2.734-.254-1.089-2.52-1.087,2.52-2.734.257,2.062,1.813Z" transform="translate(-256.637 -227.914)" fill="url(#linear-gradient-9)"/>
        <path id="Path_49" data-name="Path 49" d="M275.99,236.692l1.945-1.152,1.942,1.151-.493-2.2,1.7-1.5-2.25-.207-.9-2.076-.9,2.076-2.25.209,1.7,1.495Z" transform="translate(-258.648 -228.436)" fill="url(#linear-gradient-10)"/>
      </g>
    </g>
    <g id="Group_31" data-name="Group 31" transform="translate(193.149 242.294)">
      <g id="Group_23" data-name="Group 23" transform="translate(0 8.058)">
        <path id="Path_50" data-name="Path 50" d="M206.7,267.847v-8.709h.079a2.017,2.017,0,0,1,1.615.749,3.351,3.351,0,0,1,.611,2.108v8.945a11.111,11.111,0,0,0,1.182,5.773,4.688,4.688,0,0,0,4.315,2.128h.374v.493h-.454q-3.94-.039-5.812-1.95a13.913,13.913,0,0,1-.512,1.931l-.2.512a1.078,1.078,0,0,0-.079.236,9.745,9.745,0,0,1-3.113,4.119,10.3,10.3,0,0,1-2.286,1.319q-.63.256-1.34.473a6.155,6.155,0,0,1-2.423.217,4.2,4.2,0,0,1-1.615-.433,1.152,1.152,0,0,1-.63-1.024.9.9,0,0,1,.374-.729.93.93,0,0,1,.768-.217,1.026,1.026,0,0,1,.709.394,1.038,1.038,0,0,1-.3,1.517,5.26,5.26,0,0,0,2.739-.138,8,8,0,0,0,3.567-2.285q2.423-2.836,2.423-10.226v-1.143q-.02-.413-.02-.847v-3.211Z" transform="translate(-196.067 -258.792)" fill="#fff"/>
        <path id="Path_51" data-name="Path 51" d="M199.24,286.494a5.905,5.905,0,0,1-.7-.041,4.459,4.459,0,0,1-1.758-.483,1.484,1.484,0,0,1-.793-1.329,1.243,1.243,0,0,1,.5-.989,1.261,1.261,0,0,1,1.028-.289,1.36,1.36,0,0,1,.93.516,1.335,1.335,0,0,1,.275,1.052,1.3,1.3,0,0,1-.138.442,5.059,5.059,0,0,0,1.937-.224,7.683,7.683,0,0,0,3.407-2.18c1.553-1.819,2.341-5.184,2.341-10v-1.143c-.013-.264-.02-.552-.02-.847l.02-12.266h.345a2.406,2.406,0,0,1,1.959.872,3.7,3.7,0,0,1,.692,2.331v8.945a10.859,10.859,0,0,0,1.129,5.589,4.33,4.33,0,0,0,4.023,1.966h.719V279.6h-.8a8.837,8.837,0,0,1-5.6-1.636,13.511,13.511,0,0,1-.4,1.384l-.2.524c-.033.081-.053.135-.061.166l-.021.079a10.119,10.119,0,0,1-3.223,4.26,10.676,10.676,0,0,1-2.361,1.363c-.431.175-.891.338-1.372.485A6.8,6.8,0,0,1,199.24,286.494Zm-1.917-2.452a.558.558,0,0,0-.388.141.574.574,0,0,0-.256.47c-.006.189.037.457.471.733a1.439,1.439,0,0,0,.265.126l.289-.185a.7.7,0,0,0,.213-1.008.682.682,0,0,0-.474-.268A1.054,1.054,0,0,0,197.323,284.042Zm9.621-15.93v2.866c0,.283.007.56.02.83v1.16c0,4.988-.843,8.5-2.506,10.451a7.268,7.268,0,0,1-1.63,1.4,9.735,9.735,0,0,0,1.589-.99,9.437,9.437,0,0,0,2.989-3.94,2.051,2.051,0,0,1,.092-.269l.2-.508a13.611,13.611,0,0,0,.5-1.871l.124-.649.462.472a6.121,6.121,0,0,0,3.218,1.614,4.546,4.546,0,0,1-2.182-1.859,11.485,11.485,0,0,1-1.234-5.955v-8.945a3.039,3.039,0,0,0-.538-1.9,1.643,1.643,0,0,0-1.076-.6Z" transform="translate(-195.987 -258.712)" fill="#fff"/>
      </g>
      <g id="Group_24" data-name="Group 24" transform="translate(18.225 0.119)">
        <path id="Path_52" data-name="Path 52" d="M240.385,257.331A1.963,1.963,0,0,1,242,258.1a3.245,3.245,0,0,1,.591,2.03v10.8a7.4,7.4,0,0,1-1.36,4.689,5.066,5.066,0,0,1-4.275,1.892,4.123,4.123,0,0,1-3.467-1.615,5.116,5.116,0,0,1-4,1.615,4.119,4.119,0,0,1-3.763-1.97q-1.852,1.93-5.852,1.97H218.83v-.493h.966a4.689,4.689,0,0,0,4.314-2.128,11.12,11.12,0,0,0,1.182-5.773v-9.831h.118a2.005,2.005,0,0,1,1.616.728,3.2,3.2,0,0,1,.611,2.049v7.171q0,3.961-1.615,5.971a3.175,3.175,0,0,0,3.015,1.91q3.763,0,3.763-5.852l-.04-12.885h.118a1.962,1.962,0,0,1,1.616.768,3.307,3.307,0,0,1,.591,2.069v9.713a7.56,7.56,0,0,1-1.32,4.689,3.17,3.17,0,0,0,2.778,1.5q3.724,0,3.724-5.852v-13.93Zm-9.9-3.892a1.427,1.427,0,0,1,0,1.99,1.328,1.328,0,0,1-.976.4,1.346,1.346,0,0,1-.994-.4,1.427,1.427,0,0,1,0-1.99,1.318,1.318,0,0,1,.994-.424A1.3,1.3,0,0,1,230.484,253.439Zm1.98-3.645a1.414,1.414,0,0,1,.393,1,1.394,1.394,0,0,1-.393,1.015,1.346,1.346,0,0,1-1,.4,1.33,1.33,0,0,1-.976-.4,1.373,1.373,0,0,1-.4-1.015,1.393,1.393,0,0,1,.4-1,1.3,1.3,0,0,1,.976-.424A1.315,1.315,0,0,1,232.465,249.795Zm1.98,3.645a1.4,1.4,0,0,1-1.015,2.394,1.293,1.293,0,0,1-.965-.4,1.452,1.452,0,0,1,0-1.99,1.267,1.267,0,0,1,.965-.424A1.343,1.343,0,0,1,234.444,253.439Z" transform="translate(-218.484 -249.025)" fill="#fff"/>
        <path id="Path_53" data-name="Path 53" d="M236.877,277.773a4.5,4.5,0,0,1-3.487-1.446,5.555,5.555,0,0,1-3.98,1.446,4.479,4.479,0,0,1-3.819-1.783,8.634,8.634,0,0,1-5.792,1.783H218.4v-1.184h1.311a4.327,4.327,0,0,0,4.02-1.964,10.853,10.853,0,0,0,1.131-5.591V258.856h.463a2.344,2.344,0,0,1,1.88.853,3.55,3.55,0,0,1,.692,2.272v7.171a10.013,10.013,0,0,1-1.551,6,2.8,2.8,0,0,0,2.6,1.531c2.3,0,3.417-1.8,3.417-5.506l-.04-13.231h.464a2.305,2.305,0,0,1,1.887.9,3.658,3.658,0,0,1,.666,2.284v9.713a8.122,8.122,0,0,1-1.24,4.691,2.791,2.791,0,0,0,2.352,1.15c2.273,0,3.378-1.8,3.378-5.506V256.906h.464a2.3,2.3,0,0,1,1.887.9,3.594,3.594,0,0,1,.666,2.245v10.8a7.767,7.767,0,0,1-1.433,4.9A5.417,5.417,0,0,1,236.877,277.773Zm3.656-20.164v13.572c0,3-.73,4.926-2.176,5.744a4.29,4.29,0,0,0,2.522-1.6,7.1,7.1,0,0,0,1.288-4.479v-10.8a2.924,2.924,0,0,0-.519-1.819A1.591,1.591,0,0,0,240.533,257.609Zm-7.505,1.045.038,12.526c0,3-.735,4.919-2.189,5.74a4.342,4.342,0,0,0,2.276-1.34l.278-.308.011.013a7.3,7.3,0,0,0,1.218-4.439v-9.713a2.992,2.992,0,0,0-.519-1.858A1.588,1.588,0,0,0,233.027,258.654Zm-7.468.9v9.475a11.48,11.48,0,0,1-1.236,5.956,4.549,4.549,0,0,1-2.2,1.867,6.066,6.066,0,0,0,3.276-1.64l.276-.312c1.022-1.271,1.54-3.206,1.54-5.754v-7.171a2.883,2.883,0,0,0-.536-1.834A1.615,1.615,0,0,0,225.559,259.559Zm7.791-3.458a1.637,1.637,0,0,1-1.213-.509,1.749,1.749,0,1,1,2.478-2.47h0a1.746,1.746,0,0,1-1.265,2.979Zm0-2.818a.928.928,0,0,0-.712.313,1.107,1.107,0,0,0-.006,1.513,1.059,1.059,0,0,0,1.488,0,1.08,1.08,0,0,0-.006-1.507A1,1,0,0,0,233.35,253.282Zm-3.921,2.818a1.693,1.693,0,0,1-1.24-.506,1.746,1.746,0,1,1,2.466-2.473h0a1.773,1.773,0,0,1-.007,2.473A1.67,1.67,0,0,1,229.429,256.1Zm0-2.818a.98.98,0,0,0-.744.315,1.081,1.081,0,0,0-.007,1.507,1.047,1.047,0,0,0,1.481,0,1.082,1.082,0,0,0-.006-1.506A.959.959,0,0,0,229.429,253.282Zm1.951-.808a1.67,1.67,0,0,1-1.22-.5,1.716,1.716,0,0,1-.5-1.259,1.737,1.737,0,0,1,.5-1.233,1.714,1.714,0,0,1,2.484,0h0a1.756,1.756,0,0,1,.487,1.23,1.732,1.732,0,0,1-.493,1.256A1.683,1.683,0,0,1,231.38,252.474Zm0-2.837a.958.958,0,0,0-.725.317,1.049,1.049,0,0,0-.309.756,1.035,1.035,0,0,0,.3.77,1.066,1.066,0,0,0,1.483-1.529A.97.97,0,0,0,231.38,249.637Z" transform="translate(-218.405 -248.946)" fill="#fff"/>
      </g>
      <g id="Group_25" data-name="Group 25" transform="translate(45.927)">
        <path id="Path_54" data-name="Path 54" d="M255.229,249.226v19.86a11.12,11.12,0,0,0,1.182,5.773,4.689,4.689,0,0,0,4.315,2.128h.572v.493h-.65q-4.079-.039-5.931-2.089Q252.9,273.4,252.9,269.2V252a3.315,3.315,0,0,1,.591-2.069,2.03,2.03,0,0,1,1.616-.709Z" transform="translate(-252.559 -248.88)" fill="#fff"/>
        <path id="Path_55" data-name="Path 55" d="M261.564,277.745h-1c-2.81-.027-4.891-.768-6.187-2.2-1.262-1.384-1.9-3.545-1.9-6.419v-17.2a3.658,3.658,0,0,1,.663-2.28,2.378,2.378,0,0,1,1.89-.845h.463v20.207a10.857,10.857,0,0,0,1.13,5.59,4.33,4.33,0,0,0,4.022,1.965h.917ZM254.8,249.5a1.639,1.639,0,0,0-1.126.578,2.993,2.993,0,0,0-.507,1.844v17.2c0,2.7.579,4.7,1.723,5.954a5.978,5.978,0,0,0,3.328,1.742,4.543,4.543,0,0,1-2.183-1.859,11.489,11.489,0,0,1-1.234-5.955Z" transform="translate(-252.479 -248.8)" fill="#fff"/>
      </g>
      <g id="Group_26" data-name="Group 26" transform="translate(54.124 27.761)">
        <path id="Path_56" data-name="Path 56" d="M270.079,283.373v.493h-7.092v-.493Z" transform="translate(-262.641 -283.027)" fill="#fff"/>
        <rect id="Rectangle_6" data-name="Rectangle 6" width="7.784" height="1.184" fill="#fff"/>
      </g>
      <g id="Group_27" data-name="Group 27" transform="translate(61.02 27.761)">
        <path id="Path_57" data-name="Path 57" d="M278.562,283.373v.493h-7.093v-.493Z" transform="translate(-271.123 -283.027)" fill="#fff"/>
        <rect id="Rectangle_7" data-name="Rectangle 7" width="7.784" height="1.184" fill="#fff"/>
      </g>
      <g id="Group_28" data-name="Group 28" transform="translate(67.916 27.761)">
        <path id="Path_58" data-name="Path 58" d="M287.044,283.373v.493h-7.093v-.493Z" transform="translate(-279.605 -283.027)" fill="#fff"/>
        <rect id="Rectangle_8" data-name="Rectangle 8" width="7.784" height="1.184" fill="#fff"/>
      </g>
      <g id="Group_29" data-name="Group 29" transform="translate(74.811 8.079)">
        <path id="Path_59" data-name="Path 59" d="M295.665,276.362a5.7,5.7,0,0,1-.65.887q-1.852,2.05-5.931,2.089h-.65v-.493H289a4.689,4.689,0,0,0,4.315-2.128,11.119,11.119,0,0,0,1.182-5.773v-9a3.306,3.306,0,0,1,.591-2.068,2.025,2.025,0,0,1,1.615-.71h.119v11.783a11.112,11.112,0,0,0,1.182,5.773,4.686,4.686,0,0,0,4.315,2.128h.374v.493h-.453q-4.079-.039-5.931-2.089A5.693,5.693,0,0,1,295.665,276.362Zm.906,4.62a1.413,1.413,0,0,1,.394,1,1.366,1.366,0,0,1-.394.994,1.343,1.343,0,0,1-1,.4,1.33,1.33,0,0,1-.976-.4,1.352,1.352,0,0,1-.4-.994,1.4,1.4,0,0,1,.4-1,1.368,1.368,0,0,1,1.98,0Z" transform="translate(-288.088 -258.816)" fill="#fff"/>
        <path id="Path_60" data-name="Path 60" d="M295.487,283.643a1.673,1.673,0,0,1-1.22-.506,1.692,1.692,0,0,1-.5-1.239,1.739,1.739,0,0,1,.5-1.234,1.714,1.714,0,0,1,2.484,0,1.756,1.756,0,0,1,.487,1.231,1.712,1.712,0,0,1-.493,1.236A1.686,1.686,0,0,1,295.487,283.643Zm0-2.818a.956.956,0,0,0-.725.316,1.052,1.052,0,0,0-.308.757,1.007,1.007,0,0,0,.3.75,1.06,1.06,0,0,0,1.488,0,1.027,1.027,0,0,0,.3-.753,1.07,1.07,0,0,0-.3-.76A.972.972,0,0,0,295.487,280.826Zm7.477-1.222h-.8c-2.81-.027-4.892-.768-6.187-2.2a5.746,5.746,0,0,1-.393-.489,5.912,5.912,0,0,1-.393.489c-1.3,1.434-3.377,2.176-6.184,2.2h-1V278.42h.917a4.33,4.33,0,0,0,4.022-1.964,10.862,10.862,0,0,0,1.13-5.591v-9a3.655,3.655,0,0,1,.663-2.28,2.374,2.374,0,0,1,1.889-.844h.464v12.128a10.85,10.85,0,0,0,1.129,5.589,4.329,4.329,0,0,0,4.022,1.966h.719ZM296.4,259.439a1.635,1.635,0,0,0-1.127.578,2.992,2.992,0,0,0-.507,1.843v9a11.484,11.484,0,0,1-1.235,5.956,4.544,4.544,0,0,1-2.183,1.859,5.978,5.978,0,0,0,3.328-1.742,5.355,5.355,0,0,0,.611-.833l.3-.494.3.494a5.4,5.4,0,0,0,.611.833,5.977,5.977,0,0,0,3.326,1.741,4.547,4.547,0,0,1-2.182-1.86,11.484,11.484,0,0,1-1.234-5.955Z" transform="translate(-288.008 -258.737)" fill="#fff"/>
      </g>
      <g id="Group_30" data-name="Group 30" transform="translate(88.879 8.079)">
        <path id="Path_61" data-name="Path 61" d="M311.806,271.1q-.02-.433-.02-.867a11.993,11.993,0,0,1,2.483-7.881,10.1,10.1,0,0,1,14.737,0,12,12,0,0,1,2.482,7.881q0,5.36-2.836,8.2l-.572.512a10.982,10.982,0,0,1-12.886,0l-.532-.472a8.856,8.856,0,0,1-1.616-2.227,5.642,5.642,0,0,1-.729,1q-1.852,2.05-5.931,2.089h-.65v-.493h.572a4.689,4.689,0,0,0,4.315-2.128A10.866,10.866,0,0,0,311.806,271.1Zm2.286-.04h.019v.394q.335,9.142,7.507,9.142,7.546,0,7.546-10.245a13.547,13.547,0,0,0-1.971-7.8,6.718,6.718,0,0,0-11.131.079,13.821,13.821,0,0,0-1.97,7.881Z" transform="translate(-305.391 -258.816)" fill="#fff"/>
        <path id="Path_62" data-name="Path 62" d="M321.538,281.3a10.108,10.108,0,0,1-6.643-2.167l-.541-.481a9.134,9.134,0,0,1-1.408-1.81,5.79,5.79,0,0,1-.453.563c-1.294,1.432-3.375,2.174-6.183,2.2h-1V278.42h.917a4.33,4.33,0,0,0,4.022-1.964,10.6,10.6,0,0,0,1.13-5.427c-.013-.29-.02-.582-.02-.874a12.374,12.374,0,0,1,2.562-8.1,10.445,10.445,0,0,1,15.27,0,12.39,12.39,0,0,1,2.561,8.1c0,3.652-.988,6.492-2.936,8.441l-.585.525A10.184,10.184,0,0,1,321.538,281.3Zm-7.181-10.661h.02v.74c.217,5.915,2.56,8.8,7.162,8.8,4.845,0,7.2-3.238,7.2-9.9a13.285,13.285,0,0,0-1.91-7.606,6.372,6.372,0,0,0-10.559.076,13.547,13.547,0,0,0-1.913,7.688Zm10.228-10.805a6.847,6.847,0,0,1,2.814,2.445,13.94,13.94,0,0,1,2.031,8c0,4.923-1.3,8.146-3.884,9.635a8.159,8.159,0,0,0,2.234-1.311l.562-.5c1.8-1.8,2.721-4.477,2.721-7.939a11.718,11.718,0,0,0-2.4-7.661A8.1,8.1,0,0,0,324.585,259.832Zm-11.6,15.61.291.564a8.567,8.567,0,0,0,1.554,2.141l.516.458a8.115,8.115,0,0,0,2.064,1.242c-2.319-1.4-3.567-4.224-3.723-8.457l-.019-.958a14.219,14.219,0,0,1,2.03-8.076,6.949,6.949,0,0,1,2.908-2.549,8.1,8.1,0,0,0-4.148,2.688,11.709,11.709,0,0,0-2.4,7.661c0,.284.006.567.02.851v.018a11.232,11.232,0,0,1-1.235,5.8,4.55,4.55,0,0,1-2.183,1.858,5.983,5.983,0,0,0,3.328-1.742,5.317,5.317,0,0,0,.685-.945Z" transform="translate(-305.312 -258.737)" fill="#fff"/>
      </g>
    </g>
    <g id="Group_33" data-name="Group 33" transform="translate(266.602 241.787)">
      <g id="Group_32" data-name="Group 32" transform="translate(0)">
        <path id="Path_63" data-name="Path 63" d="M291.092,253.249l-.007-4.3-2.1,3.634H288.8l-2.1-3.62v4.288h-.359v-5.028h.309l2.248,3.886,2.249-3.886h.3l.007,5.028Z" transform="translate(-286.337 -248.185)" fill="#fff"/>
        <path id="Path_64" data-name="Path 64" d="M294.2,250.727a2.615,2.615,0,1,1,2.615,2.55A2.517,2.517,0,0,1,294.2,250.727Zm4.856,0a2.245,2.245,0,1,0-2.241,2.213A2.172,2.172,0,0,0,299.052,250.727Z" transform="translate(-287.807 -248.177)" fill="#fff"/>
        <path id="Path_65" data-name="Path 65" d="M306.29,251.92c0,.848-.617,1.329-1.853,1.329H302.2v-5.028h2.1c1.078,0,1.731.453,1.731,1.286a1.146,1.146,0,0,1-.84,1.149A1.209,1.209,0,0,1,306.29,251.92Zm-3.728-3.383v2h1.717c.869,0,1.372-.337,1.372-1.006s-.5-1-1.372-1Zm3.362,3.354c0-.718-.524-1.034-1.487-1.034h-1.875v2.076h1.875C305.4,252.933,305.924,252.617,305.924,251.892Z" transform="translate(-289.303 -248.185)" fill="#fff"/>
        <path id="Path_66" data-name="Path 66" d="M311.761,251.835h-2.916l-.639,1.415h-.4l2.313-5.028h.366l2.313,5.028h-.4Zm-.137-.309-1.321-2.9-1.315,2.9Z" transform="translate(-290.353 -248.185)" fill="#fff"/>
        <path id="Path_67" data-name="Path 67" d="M314.45,252.595l.165-.273a2.389,2.389,0,0,0,1.659.632c1.006,0,1.451-.437,1.451-.984,0-1.508-3.139-.6-3.139-2.457,0-.711.545-1.336,1.781-1.336a2.7,2.7,0,0,1,1.515.453l-.137.294a2.489,2.489,0,0,0-1.379-.424c-.977,0-1.415.452-1.415,1.006,0,1.508,3.139.617,3.139,2.441,0,.711-.567,1.329-1.81,1.329A2.579,2.579,0,0,1,314.45,252.595Z" transform="translate(-291.595 -248.177)" fill="#fff"/>
        <path id="Path_68" data-name="Path 68" d="M324.555,248.221v5.028h-.367v-2.392h-3.362v2.392h-.366v-5.028h.366v2.313h3.362v-2.313Z" transform="translate(-292.719 -248.185)" fill="#fff"/>
        <path id="Path_69" data-name="Path 69" d="M331.126,252.919v.33h-3.47v-5.028h3.362v.331h-3v1.982H330.7v.324h-2.679v2.062Z" transform="translate(-294.064 -248.185)" fill="#fff"/>
        <path id="Path_70" data-name="Path 70" d="M337.061,253.249l-1.2-1.681a3.492,3.492,0,0,1-.489.037h-1.437v1.645h-.367v-5.028h1.8c1.264,0,2.025.633,2.025,1.7a1.542,1.542,0,0,1-1.177,1.573l1.257,1.76Zm-1.688-1.968c1.077,0,1.652-.5,1.652-1.365s-.575-1.364-1.652-1.364h-1.437v2.729Z" transform="translate(-295.17 -248.185)" fill="#fff"/>
      </g>
    </g>
  </g>
</svg>
