<svg width="512" height="512" viewBox="0 0 512 512" fill="none" xmlns="http://www.w3.org/2000/svg">
<g clip-path="url(#clip0_712_3572)">
<path d="M254.541 246.892C254.454 244.063 254.945 241.245 255.983 238.611C257.021 235.976 258.586 233.578 260.582 231.564C262.578 229.549 264.964 227.959 267.595 226.89C270.226 225.821 273.048 225.295 275.889 225.344C280.103 225.23 284.246 226.443 287.727 228.81C291.209 231.177 293.852 234.578 295.281 238.528H292.754C291.333 235.279 288.966 232.53 285.96 230.634C282.953 228.739 279.446 227.785 275.889 227.896C273.373 227.861 270.876 228.335 268.549 229.289C266.221 230.243 264.113 231.657 262.35 233.446C260.587 235.235 259.207 237.362 258.293 239.697C257.379 242.032 256.95 244.528 257.032 247.034C256.96 249.536 257.396 252.028 258.314 254.359C259.231 256.69 260.612 258.812 262.373 260.599C264.133 262.386 266.238 263.8 268.561 264.758C270.883 265.715 273.376 266.196 275.889 266.171C279.457 266.27 282.974 265.313 285.995 263.42C289.016 261.528 291.405 258.785 292.861 255.539H295.423C293.941 259.483 291.265 262.87 287.766 265.232C284.266 267.594 280.116 268.814 275.889 268.723C273.028 268.759 270.188 268.214 267.544 267.122C264.9 266.031 262.507 264.415 260.51 262.372C258.513 260.33 256.954 257.905 255.928 255.243C254.902 252.582 254.43 249.741 254.541 246.892V246.892Z" fill="#404041"/>
<path d="M275.889 270.424C272.798 270.478 269.727 269.907 266.863 268.746C263.999 267.584 261.401 265.857 259.226 263.667C257.051 261.478 255.344 258.872 254.209 256.007C253.073 253.142 252.533 250.077 252.62 246.998C252.533 243.918 253.073 240.852 254.208 237.985C255.343 235.118 257.05 232.51 259.224 230.317C261.398 228.125 263.996 226.394 266.86 225.229C269.724 224.063 272.796 223.488 275.889 223.537C280.492 223.366 285.031 224.644 288.864 227.188C292.696 229.733 295.626 233.415 297.237 237.713L298.198 240.265H291.509L291.011 239.131C289.738 236.217 287.616 233.75 284.92 232.051C282.224 230.351 279.078 229.496 275.889 229.597C273.625 229.572 271.379 230.004 269.287 230.867C267.195 231.731 265.3 233.008 263.717 234.621C262.134 236.234 260.896 238.15 260.077 240.253C259.259 242.356 258.876 244.602 258.953 246.856C258.881 249.108 259.267 251.35 260.088 253.449C260.909 255.548 262.148 257.46 263.73 259.069C265.313 260.678 267.206 261.952 269.295 262.813C271.385 263.674 273.628 264.105 275.889 264.08C279.105 264.179 282.277 263.313 284.993 261.594C287.708 259.875 289.842 257.383 291.118 254.441L291.651 253.307H298.163L297.202 255.894C295.61 260.224 292.701 263.952 288.88 266.557C285.06 269.161 280.518 270.513 275.889 270.424V270.424Z" fill="#404041"/>
<path d="M344.915 226.159V267.624H342.851L342.602 256.78C340.908 260.347 338.211 263.347 334.839 265.417C331.466 267.487 327.562 268.537 323.602 268.439C320.762 268.484 317.943 267.954 315.314 266.883C312.685 265.813 310.301 264.222 308.306 262.209C306.311 260.195 304.746 257.8 303.706 255.167C302.666 252.535 302.172 249.72 302.254 246.892C302.167 244.063 302.657 241.245 303.696 238.61C304.734 235.976 306.299 233.578 308.295 231.564C310.291 229.549 312.677 227.959 315.308 226.89C317.939 225.821 320.761 225.295 323.602 225.344C327.563 225.242 331.469 226.29 334.842 228.361C338.216 230.431 340.912 233.434 342.602 237.004L342.851 226.159H344.915ZM342.424 246.892C342.512 244.395 342.087 241.906 341.175 239.578C340.264 237.25 338.885 235.132 337.122 233.354C335.36 231.576 333.252 230.174 330.928 229.236C328.603 228.297 326.11 227.841 323.602 227.896C321.087 227.866 318.592 228.343 316.267 229.299C313.942 230.255 311.836 231.669 310.074 233.457C308.312 235.245 306.932 237.369 306.016 239.703C305.1 242.036 304.668 244.529 304.745 247.033C304.663 249.539 305.092 252.035 306.006 254.37C306.92 256.706 308.3 258.832 310.063 260.621C311.825 262.41 313.934 263.824 316.261 264.778C318.589 265.732 321.086 266.206 323.602 266.171C326.135 266.228 328.653 265.764 330.997 264.808C333.342 263.852 335.464 262.425 337.23 260.616C338.996 258.807 340.369 256.654 341.263 254.293C342.157 251.932 342.552 249.412 342.424 246.892V246.892Z" fill="#404041"/>
<path d="M323.496 270.424C320.411 270.469 317.35 269.89 314.496 268.724C311.642 267.558 309.055 265.828 306.891 263.639C304.726 261.45 303.029 258.847 301.902 255.987C300.775 253.127 300.241 250.069 300.333 246.998C300.286 242.305 301.668 237.708 304.297 233.814C306.927 229.919 310.679 226.91 315.06 225.183C319.441 223.456 324.245 223.092 328.838 224.139C333.431 225.187 337.597 227.596 340.787 231.05V224.352H346.658V269.503H340.894V262.875C338.713 265.31 336.028 267.245 333.025 268.548C330.022 269.851 326.771 270.491 323.496 270.424ZM323.496 229.739C321.231 229.714 318.985 230.146 316.893 231.009C314.801 231.873 312.906 233.149 311.323 234.762C309.741 236.376 308.502 238.291 307.684 240.394C306.865 242.497 306.482 244.744 306.559 246.998C306.487 249.25 306.873 251.492 307.694 253.591C308.515 255.69 309.754 257.601 311.337 259.211C312.919 260.82 314.812 262.094 316.902 262.955C318.991 263.816 321.234 264.247 323.496 264.222C325.762 264.273 328.015 263.859 330.115 263.007C332.214 262.154 334.116 260.88 335.7 259.265C337.285 257.65 338.52 255.728 339.328 253.618C340.135 251.507 340.499 249.254 340.396 246.998C340.513 244.741 340.164 242.484 339.37 240.366C338.576 238.249 337.353 236.316 335.779 234.689C334.205 233.061 332.312 231.772 330.217 230.902C328.123 230.033 325.871 229.6 323.602 229.633L323.496 229.739Z" fill="#404041"/>
<path d="M356.158 256.248H358.578C359.218 262.45 364.199 266.029 372.063 266.029C379.926 266.029 385.263 262.308 385.263 256.567C385.263 249.479 378.503 248.132 371.636 246.963C364.769 245.793 356.977 244.446 356.977 236.331C356.977 229.774 362.954 225.309 371.742 225.309C380.531 225.309 386.223 229.739 386.615 236.898H384.267C383.84 231.05 379.25 227.577 371.707 227.577C364.164 227.577 359.396 231.121 359.396 236.295C359.396 242.497 365.409 243.383 372.169 244.624C379.463 245.864 387.718 247.317 387.718 256.532C387.718 263.62 381.456 268.404 372.027 268.404C362.598 268.404 356.799 263.868 356.158 256.248Z" fill="#404041"/>
<path d="M372.027 270.424C361.815 270.424 354.984 265.143 354.237 256.602V254.547H360.285L360.641 256.248C361.388 263.336 368.22 264.293 372.24 264.293C379.107 264.293 383.555 261.351 383.555 256.744C383.555 251.428 379.001 250.259 371.493 249.018C363.986 247.778 355.269 246.254 355.269 236.472C355.269 228.853 362.1 223.537 371.92 223.537C381.74 223.537 388.251 228.676 388.714 236.933V238.953H382.487V237.181C382.025 230.589 375.62 229.597 371.813 229.597C365.48 229.597 361.388 232.291 361.388 236.437C361.388 240.584 364.946 241.611 372.596 242.923C379.712 244.092 389.746 245.758 389.746 256.673C389.639 264.789 382.559 270.424 372.027 270.424Z" fill="#404041"/>
<path d="M434.079 243.064V267.624H431.802V243.49C431.802 233.602 426.393 227.648 417.57 227.648C413.393 227.73 409.412 229.424 406.465 232.373C403.518 235.321 401.836 239.294 401.772 243.454V267.624H399.068V211.487H401.523V235.516C403.004 232.473 405.313 229.905 408.188 228.107C411.063 226.309 414.388 225.351 417.783 225.344C427.817 225.344 434.079 232.22 434.079 243.064Z" fill="#404041"/>
<path d="M436 269.503H429.738V243.49C429.738 234.63 425.184 229.526 417.321 229.526C413.632 229.59 410.112 231.078 407.504 233.676C404.895 236.274 403.402 239.78 403.338 243.454V269.503H397.182V209.609H403.338V229.526C405.181 227.615 407.39 226.091 409.834 225.044C412.279 223.997 414.909 223.449 417.57 223.431C428.635 223.431 435.787 231.156 435.787 243.064L436 269.503Z" fill="#404041"/>
<path d="M266.461 290.519H255.787C255.804 291.665 256.206 292.773 256.928 293.665C257.65 294.558 258.651 295.185 259.772 295.445C260.893 295.706 262.069 295.586 263.114 295.104C264.158 294.623 265.011 293.807 265.536 292.787H266.248C265.819 293.843 265.08 294.747 264.128 295.379C263.176 296.011 262.055 296.343 260.911 296.331C259.391 296.214 257.972 295.531 256.936 294.417C255.9 293.304 255.325 291.842 255.325 290.324C255.325 288.806 255.9 287.344 256.936 286.23C257.972 285.116 259.391 284.433 260.911 284.317C261.683 284.311 262.448 284.462 263.159 284.76C263.871 285.058 264.514 285.498 265.05 286.051C265.586 286.605 266.003 287.261 266.277 287.98C266.55 288.7 266.673 289.467 266.639 290.235C266.639 290.235 266.461 290.412 266.461 290.519ZM255.787 289.845H265.963C265.954 289.194 265.816 288.55 265.557 287.952C265.298 287.353 264.923 286.812 264.454 286.357C263.985 285.903 263.43 285.546 262.822 285.305C262.214 285.064 261.565 284.945 260.911 284.954C260.241 284.926 259.573 285.03 258.944 285.262C258.316 285.493 257.74 285.847 257.249 286.302C256.759 286.757 256.365 287.305 256.09 287.913C255.814 288.521 255.663 289.178 255.644 289.845H255.787Z" fill="#404041"/>
<path d="M280.48 284.6V296.189H279.875V293.177C279.4 294.168 278.646 295 277.705 295.573C276.763 296.145 275.676 296.433 274.573 296.402C273.054 296.285 271.634 295.602 270.599 294.488C269.563 293.374 268.988 291.912 268.988 290.394C268.988 288.877 269.563 287.415 270.599 286.301C271.634 285.187 273.054 284.504 274.573 284.387C275.679 284.359 276.77 284.652 277.712 285.231C278.653 285.81 279.405 286.65 279.875 287.648V284.6H280.48ZM279.768 290.412C279.754 289.376 279.432 288.368 278.844 287.514C278.255 286.66 277.426 285.999 276.46 285.614C275.495 285.229 274.436 285.137 273.419 285.35C272.401 285.564 271.469 286.072 270.741 286.812C270.013 287.552 269.522 288.49 269.328 289.508C269.135 290.525 269.248 291.577 269.654 292.531C270.06 293.485 270.741 294.297 271.61 294.866C272.479 295.435 273.498 295.735 274.538 295.728C275.246 295.739 275.949 295.605 276.602 295.333C277.256 295.062 277.846 294.659 278.337 294.15C278.828 293.642 279.208 293.038 279.454 292.376C279.701 291.715 279.807 291.01 279.768 290.306V290.412Z" fill="#404041"/>
<path d="M283.61 292.928H284.286C284.464 294.665 285.852 295.657 288.058 295.657C290.264 295.657 291.616 294.63 291.616 292.999C291.616 291.369 289.731 290.66 287.809 290.341C285.888 290.022 283.717 289.632 283.717 287.364C283.717 285.096 285.389 284.281 287.845 284.281C290.3 284.281 291.901 285.521 292.008 287.506H291.332C291.332 285.876 289.944 284.919 287.773 284.919C285.603 284.919 284.215 285.876 284.215 287.364C284.215 288.853 285.888 289.349 287.773 289.668C289.659 289.987 292.079 290.412 292.079 292.999C292.079 294.984 290.335 296.295 287.702 296.295C285.069 296.295 283.788 295.019 283.61 292.928Z" fill="#404041"/>
<path d="M305.03 284.6L299.088 297.11C297.985 299.485 296.988 300.158 295.138 300.158H294.213V299.52H295.067C296.668 299.52 297.451 299.06 298.625 296.898L299.301 295.445L293.75 284.6H294.498L299.55 294.771L304.283 284.6H305.03Z" fill="#404041"/>
<path d="M328.229 284.6L324.101 296.189H323.568L319.618 286.301L315.668 296.189H315.135L311.149 284.6H311.897L315.455 294.984L319.476 284.99H319.76L323.817 295.019L327.375 284.6H328.229Z" fill="#404041"/>
<path d="M341.713 284.6V296.189H341.108V293.177C340.613 294.159 339.841 294.977 338.887 295.531C337.933 296.085 336.838 296.35 335.735 296.295C334.216 296.179 332.796 295.496 331.761 294.382C330.725 293.268 330.15 291.806 330.15 290.288C330.15 288.77 330.725 287.308 331.761 286.195C332.796 285.081 334.216 284.397 335.735 284.281C336.842 284.248 337.935 284.539 338.877 285.119C339.82 285.698 340.571 286.541 341.037 287.542V284.494L341.713 284.6ZM341.037 290.412C341.044 289.375 340.742 288.359 340.169 287.492C339.596 286.626 338.779 285.948 337.819 285.545C336.86 285.141 335.801 285.03 334.778 285.226C333.756 285.421 332.814 285.915 332.072 286.643C331.331 287.372 330.823 288.303 330.613 289.319C330.403 290.335 330.5 291.39 330.892 292.351C331.284 293.312 331.954 294.136 332.816 294.718C333.678 295.3 334.694 295.615 335.735 295.622C336.44 295.642 337.141 295.517 337.796 295.257C338.45 294.996 339.044 294.605 339.541 294.107C340.038 293.609 340.427 293.014 340.684 292.361C340.942 291.707 341.062 291.008 341.037 290.306V290.412Z" fill="#404041"/>
<path d="M355.625 284.6L349.719 297.217C348.58 299.591 347.584 300.265 345.733 300.265H344.808V299.627H345.698C347.263 299.627 348.082 299.166 349.256 297.004L349.968 295.551L344.346 284.6H345.129L350.146 294.771L354.878 284.6H355.625Z" fill="#404041"/>
<path d="M362.562 292.928H363.239C363.239 294.665 364.804 295.657 367.01 295.657C369.216 295.657 370.569 294.63 370.569 292.999C370.569 291.369 368.647 290.66 366.761 290.341C364.875 290.022 362.669 289.632 362.669 287.364C362.669 285.096 364.306 284.281 366.761 284.281C369.216 284.281 370.818 285.521 370.924 287.506H370.284C370.284 285.876 368.861 284.919 366.726 284.919C364.591 284.919 363.167 285.876 363.167 287.364C363.167 288.853 364.84 289.349 366.726 289.668C368.611 289.987 371.067 290.412 371.067 292.999C371.067 294.984 369.288 296.295 366.69 296.295C364.093 296.295 362.74 295.019 362.562 292.928Z" fill="#404041"/>
<path d="M383.983 284.6L378.076 297.11C376.937 299.485 375.941 300.158 374.091 300.158H373.166V299.52H374.055C375.656 299.52 376.439 299.06 377.613 296.898L378.325 295.445L372.703 284.6H373.486L378.432 294.665L383.271 284.6H383.983Z" fill="#404041"/>
<path d="M385.263 292.928H385.939C385.939 294.665 387.504 295.657 389.71 295.657C391.917 295.657 393.269 294.63 393.269 292.999C393.269 291.369 391.383 290.66 389.461 290.341C387.54 290.022 385.547 289.632 385.547 287.364C385.547 285.096 387.22 284.281 389.675 284.281C392.13 284.281 393.731 285.521 393.838 287.506H393.162C393.162 285.876 391.774 284.919 389.604 284.919C387.433 284.919 386.046 285.876 386.046 287.364C386.046 288.853 387.718 289.349 389.604 289.668C391.49 289.987 393.909 290.412 393.909 292.999C393.909 294.984 392.166 296.295 389.533 296.295C386.899 296.295 385.547 295.019 385.263 292.928Z" fill="#404041"/>
<path d="M402.911 295.445V296.083H401.416C400.937 296.133 400.452 296.076 399.997 295.915C399.543 295.755 399.13 295.495 398.789 295.156C398.448 294.816 398.187 294.405 398.026 293.952C397.865 293.499 397.808 293.016 397.858 292.539V285.096H395.189V284.6H397.858V281.056H398.534V284.6H402.768V285.203H398.605V292.61C398.562 292.996 398.605 293.387 398.731 293.754C398.858 294.122 399.065 294.456 399.337 294.735C399.61 295.013 399.941 295.227 400.306 295.362C400.672 295.497 401.063 295.55 401.452 295.516L402.911 295.445Z" fill="#404041"/>
<path d="M415.684 290.518H405.01C405.01 291.192 405.143 291.858 405.403 292.48C405.663 293.101 406.043 293.665 406.523 294.14C407.002 294.614 407.572 294.989 408.197 295.244C408.823 295.498 409.493 295.627 410.169 295.622C411.125 295.63 412.064 295.368 412.876 294.866C413.689 294.364 414.342 293.643 414.759 292.787H415.506C415.038 293.723 414.328 294.518 413.449 295.09C412.569 295.662 411.553 295.99 410.504 296.04C409.455 296.09 408.412 295.862 407.481 295.377C406.551 294.892 405.767 294.169 405.21 293.282C404.654 292.395 404.345 291.376 404.315 290.331C404.285 289.285 404.536 288.251 405.041 287.334C405.546 286.417 406.287 285.651 407.189 285.114C408.09 284.577 409.119 284.29 410.169 284.281C410.938 284.28 411.699 284.435 412.407 284.735C413.114 285.035 413.753 285.475 414.285 286.029C414.817 286.582 415.231 287.236 415.502 287.953C415.773 288.67 415.896 289.434 415.862 290.199L415.684 290.518ZM405.01 289.845H415.186C415.167 288.535 414.629 287.286 413.69 286.37C412.75 285.454 411.484 284.945 410.169 284.954C409.496 284.926 408.824 285.03 408.191 285.26C407.559 285.491 406.978 285.843 406.482 286.297C405.986 286.752 405.585 287.299 405.302 287.908C405.019 288.516 404.859 289.175 404.832 289.845H405.01Z" fill="#404041"/>
<path d="M435.36 288.782V296.083H434.72V288.995C434.72 286.585 433.403 284.99 431.411 284.99C430.855 284.997 430.308 285.119 429.803 285.349C429.297 285.579 428.846 285.911 428.478 286.325C428.109 286.739 427.831 287.224 427.663 287.751C427.494 288.278 427.437 288.834 427.497 289.384V296.153H426.821V289.065C426.821 286.62 425.504 285.061 423.476 285.061C422.921 285.067 422.373 285.19 421.868 285.42C421.363 285.649 420.911 285.982 420.543 286.396C420.174 286.809 419.897 287.295 419.728 287.822C419.559 288.349 419.502 288.905 419.562 289.455V296.224H418.886V284.6H419.419V286.974C419.764 286.193 420.332 285.53 421.054 285.069C421.776 284.609 422.619 284.372 423.476 284.387C424.329 284.376 425.157 284.671 425.81 285.217C426.463 285.764 426.898 286.526 427.034 287.364C427.33 286.484 427.9 285.72 428.661 285.184C429.423 284.649 430.336 284.37 431.268 284.387C431.839 284.369 432.406 284.472 432.933 284.691C433.459 284.91 433.932 285.239 434.32 285.655C434.708 286.072 435.002 286.567 435.181 287.106C435.361 287.646 435.422 288.217 435.36 288.782V288.782Z" fill="#404041"/>
<path d="M233.549 238.812V233.212C233.549 229.838 232.203 226.602 229.808 224.215C227.412 221.829 224.163 220.489 220.776 220.489C217.388 220.489 214.139 221.829 211.744 224.215C209.348 226.602 208.002 229.838 208.002 233.212V244.376C208.002 245.363 207.609 246.309 206.908 247.007C206.208 247.705 205.257 248.097 204.266 248.097C203.276 248.097 202.325 247.705 201.625 247.007C200.924 246.309 200.531 245.363 200.531 244.376V225.167C200.668 221.254 200.012 217.353 198.603 213.697C197.194 210.041 195.06 206.706 192.329 203.889C189.598 201.072 186.326 198.832 182.707 197.302C179.088 195.772 175.197 194.983 171.266 194.983C167.335 194.983 163.443 195.772 159.825 197.302C156.206 198.832 152.933 201.072 150.202 203.889C147.471 206.706 145.338 210.041 143.929 213.697C142.52 217.353 141.864 221.254 142.001 225.167V244.376C142.001 245.358 141.609 246.3 140.912 246.994C140.215 247.689 139.269 248.079 138.283 248.079C137.297 248.079 136.351 247.689 135.654 246.994C134.957 246.3 134.565 245.358 134.565 244.376V225.167C134.565 217.431 131.48 210.013 125.988 204.543C120.497 199.073 113.049 196 105.282 196C97.5163 196 90.0682 199.073 84.5766 204.543C79.0851 210.013 76 217.431 76 225.167V260.997C76 264.371 77.3458 267.607 79.7412 269.993C82.1367 272.38 85.3856 273.72 88.7733 273.72C92.161 273.72 95.4099 272.38 97.8053 269.993C100.201 267.607 101.547 264.371 101.547 260.997V225.167C101.547 224.681 101.643 224.199 101.83 223.75C102.016 223.301 102.29 222.892 102.636 222.548C102.981 222.204 103.391 221.932 103.842 221.746C104.293 221.559 104.776 221.464 105.265 221.464C105.753 221.464 106.236 221.559 106.688 221.746C107.139 221.932 107.549 222.204 107.894 222.548C108.239 222.892 108.513 223.301 108.7 223.75C108.887 224.199 108.983 224.681 108.983 225.167V244.376C108.983 252.111 112.068 259.53 117.559 265C123.051 270.47 130.499 273.543 138.265 273.543C146.031 273.543 153.48 270.47 158.971 265C164.463 259.53 167.548 252.111 167.548 244.376V225.167C167.548 224.185 167.939 223.243 168.637 222.548C169.334 221.854 170.28 221.464 171.266 221.464C172.252 221.464 173.198 221.854 173.895 222.548C174.592 223.243 174.984 224.185 174.984 225.167V244.376C174.993 252.108 178.082 259.522 183.571 264.99C189.061 270.457 196.503 273.533 204.266 273.543C205.576 273.538 206.884 273.443 208.18 273.259V286.833C208.18 287.82 207.787 288.766 207.086 289.464C206.385 290.162 205.435 290.554 204.444 290.554C203.454 290.554 202.503 290.162 201.803 289.464C201.102 288.766 200.708 287.82 200.708 286.833V285.451C200.708 283.78 200.378 282.125 199.736 280.582C199.094 279.038 198.153 277.636 196.967 276.454C195.781 275.273 194.373 274.336 192.823 273.696C191.274 273.057 189.613 272.728 187.935 272.728C186.258 272.728 184.597 273.057 183.047 273.696C181.497 274.336 180.089 275.273 178.903 276.454C177.717 277.636 176.776 279.038 176.134 280.582C175.492 282.125 175.162 283.78 175.162 285.451V286.833C175.162 294.568 178.247 301.987 183.739 307.457C189.23 312.927 196.678 316 204.444 316C212.211 316 219.659 312.927 225.15 307.457C230.642 301.987 233.727 294.568 233.727 286.833V240.761C233.718 240.107 233.659 239.456 233.549 238.812V238.812Z" fill="#404041"/>
<path d="M156.731 299.733C163.786 299.733 169.505 294.037 169.505 287.01C169.505 279.983 163.786 274.287 156.731 274.287C149.677 274.287 143.958 279.983 143.958 287.01C143.958 294.037 149.677 299.733 156.731 299.733Z" fill="#2A9D7C"/>
</g>
<defs>
<clipPath id="clip0_712_3572">
<rect width="360" height="120" fill="white" transform="translate(76 196)"/>
</clipPath>
</defs>
</svg>
